<svg xmlns="http://www.w3.org/2000/svg" viewBox="0 0 100 100">
  <circle cx="50" cy="50" r="50" fill="#eccca3"/>
  <path d="M50 19c-13 0-22 10-22 23 0 5 1 9 3 13 2-2 3-6 3-10v-4c0-9 7-15 16-15s16 6 16 15v4c0 4 1 8 3 10 2-4 3-8 3-13 0-13-9-23-22-23z" fill="#1f1f1f"/>
  <circle cx="50" cy="49" r="16" fill="#eccca3"/>
  <rect x="34" y="46" width="14" height="10" rx="5" fill="none" stroke="#1f1f1f" stroke-width="2"/>
  <rect x="52" y="46" width="14" height="10" rx="5" fill="none" stroke="#1f1f1f" stroke-width="2"/>
  <line x1="48" y1="50" x2="52" y2="50" stroke="#1f1f1f" stroke-width="2"/>
  <path d="M20 100c0-16 13-27 30-27s30 11 30 27" fill="#111827"/>
</svg>
