<svg xmlns="http://www.w3.org/2000/svg" viewBox="0 0 100 100">
  <circle cx="50" cy="50" r="50" fill="#fcd9b6"/>
  <path d="M50 20c-12 0-20 9-20 22 0 4 1 8 2 11 3 7 10 13 18 13s15-6 18-13c1-3 2-7 2-11 0-13-8-22-20-22z" fill="#3a2418"/>
  <circle cx="50" cy="48" r="17" fill="#f4c396"/>
  <path d="M35 44c0-10 6-17 15-17s15 7 15 17c0-3-2-6-4-6-1 3-3 4-6 4h-10c-3 0-5-1-6-4-2 0-4 3-4 6z" fill="#3a2418"/>
  <path d="M42 62c3 2 5 3 8 3s5-1 8-3" stroke="#8a5a2e" stroke-width="1.5" fill="none"/>
  <path d="M20 100c0-16 13-27 30-27s30 11 30 27" fill="#2563eb"/>
</svg>
