<svg xmlns="http://www.w3.org/2000/svg" viewBox="0 0 100 100">
  <circle cx="50" cy="50" r="50" fill="#f6ddc4"/>
  <path d="M50 18c-15 0-25 11-25 26 0 8 2 15 4 20 4-2 6-8 6-14V44c0-8 6-14 15-14s15 6 15 14v6c0 6 2 12 6 14 2-5 4-12 4-20 0-15-10-26-25-26z" fill="#241a12"/>
  <circle cx="50" cy="48" r="17" fill="#f6ddc4"/>
  <path d="M33 46c0 20 8 22 17 22s17-2 17-22" fill="none"/>
  <path d="M50 88c-16 0-25-4-30-9 0-16 13-27 30-27s30 11 30 27c-5 5-14 9-30 9z" fill="#f59e0b"/>
  <path d="M34 44c2-6 8-10 16-10s14 4 16 10c0-11-7-19-16-19s-16 8-16 19z" fill="#241a12"/>
</svg>
